HIERARCHY
ROOT hip
{
	OFFSET 0.000000 0.000000 0.000000 
	CHANNELS 6 Xposition Yposition Zposition Xrotation Zrotation Yrotation
	JOINT abdomen
	{
		OFFSET 0.000000 3.402643 0.000000 
		CHANNELS 3 Xrotation Zrotation Yrotation
		JOINT chest
		{
			OFFSET 0.000000 8.438565 -0.680529 
			CHANNELS 3 Xrotation Zrotation Yrotation
			JOINT neck
			{
				OFFSET 0.000000 10.207942 -0.272212 
				CHANNELS 3 Xrotation Zrotation Yrotation
				JOINT head
				{
					OFFSET 0.000000 3.130431 0.000000 
					CHANNELS 3 Xrotation Zrotation Yrotation
					End Site
					{
						OFFSET 0.000000 3.130435 0.000000 
					}
				}
			}
			JOINT lCollar
			{
				OFFSET 3.470700 6.669187 -0.816635 
				CHANNELS 3 Yrotation Zrotation Xrotation
				JOINT lShldr
				{
					OFFSET 3.198488 0.000000 0.000000 
					CHANNELS 3 Zrotation Yrotation Xrotation
					JOINT lForeArm
					{
						OFFSET 10.139888 0.000000 0.000000 
						CHANNELS 3 Yrotation Zrotation Xrotation
						JOINT lHand
						{
							OFFSET 8.370511 0.000000 0.000000 
							CHANNELS 3 Zrotation Yrotation Xrotation
							End Site
							{
								OFFSET 4.083176 0.000000 0.000000 
							}
						}
					}
				}
			}
			JOINT rCollar
			{
				OFFSET -3.470700 6.669187 -0.816635 
				CHANNELS 3 Yrotation Zrotation Xrotation
				JOINT rShldr
				{
					OFFSET -3.198488 0.000000 0.000000 
					CHANNELS 3 Zrotation Yrotation Xrotation
					JOINT rForeArm
					{
						OFFSET -10.139888 0.000000 0.000000 
						CHANNELS 3 Yrotation Zrotation Xrotation
						JOINT rHand
						{
							OFFSET -8.370511 0.000000 0.000000 
							CHANNELS 3 Zrotation Yrotation Xrotation
							End Site
							{
								OFFSET -4.083176 0.000000 0.000000 
							}
						}
					}
				}
			}
		}
	}
	JOINT lThigh
	{
		OFFSET 5.308129 -1.633274 1.361059 
		CHANNELS 3 Xrotation Zrotation Yrotation
		JOINT lShin
		{
			OFFSET -2.041588 -20.007561 0.000000 
			CHANNELS 3 Xrotation Zrotation Yrotation
			JOINT lFoot
			{
				OFFSET 0.000000 -19.190928 -1.224953 
				CHANNELS 3 Xrotation Yrotation Zrotation
				End Site
				{
					OFFSET 0.000000 -2.449906 4.627600 
				}
			}
		}
	}
	JOINT rThigh
	{
		OFFSET -5.308129 -1.633274 1.361059 
		CHANNELS 3 Xrotation Zrotation Yrotation
		JOINT rShin
		{
			OFFSET 2.041588 -20.007561 0.000000 
			CHANNELS 3 Xrotation Zrotation Yrotation
			JOINT rFoot
			{
				OFFSET 0.000000 -19.190928 -1.224953 
				CHANNELS 3 Xrotation Yrotation Zrotation
				End Site
				{
					OFFSET 0.000000 -2.449906 4.627600 
				}
			}
		}
	}
}
MOTION
Frames: 19
Frame Time: 0.011111
-47.490665 86.377373 -15.106351 -28.639044 -30.071239 -8.172451 70.463165 -4.740454 29.064947 -21.557053 -6.778995 7.176310 12.071624 21.286663 -3.508817 29.069462 -4.262222 -10.295856 2.971642 -4.490881 1.927035 -11.292610 -18.141972 53.555542 -87.364632 3.186286 32.919136 8.524705 12.647240 -83.577530 -4.704987 0.510038 2.448925 9.121531 30.057449 -46.350777 86.419693 -1.572797 30.993906 -8.534408 -12.637552 72.415871 -58.138107 29.617756 -18.393461 95.099777 1.942360 -9.779970 4.818240 -8.228070 -2.600999 -47.829243 -11.718097 -3.269067 106.099022 -3.554022 9.667356 4.918017 -1.898943 2.999865 
-47.571751 86.428909 -14.967445 -30.821898 -30.019871 -7.146091 71.909668 -4.757328 29.035810 -21.213108 -6.548900 7.107719 11.475898 21.075106 -3.852083 31.042213 -3.997407 -10.757792 2.971642 -4.490881 1.927035 -10.301147 -18.828846 54.105724 -87.085770 2.785885 32.544243 8.524705 12.647240 -83.782608 -4.704987 0.510038 2.448925 8.561808 30.747702 -46.466244 86.405396 -1.541361 30.936911 -8.534408 -12.637552 71.702988 -55.937088 30.681093 -17.121664 94.992455 1.936888 -9.781051 4.366395 -8.526572 -2.706501 -45.905056 -11.308129 -2.921184 106.255783 -3.563905 9.647607 5.034655 -1.321826 2.944240 
-47.629887 86.494911 -14.944818 -31.706800 -28.396051 -6.319715 72.353340 -5.309411 27.626192 -21.394028 -5.966299 6.922734 13.578559 19.886503 -3.523434 28.125978 -2.020202 -9.925920 2.971642 -4.490881 1.927035 -9.150015 -19.531811 55.109188 -86.861282 2.423441 32.179874 8.524705 12.647240 -83.811897 -4.704987 0.510038 2.448925 8.462228 30.686718 -46.530891 86.424347 -1.583273 31.012733 -8.534408 -12.637552 71.380714 -54.463947 29.675352 -15.347275 94.943314 1.932598 -9.793264 3.745879 -8.031180 -2.783915 -46.330242 -12.966918 -1.961593 106.664650 -3.603153 9.659360 5.296591 -0.377377 2.873747 
-47.686771 86.520683 -14.975928 -32.217312 -27.709061 -5.706258 72.685844 -5.378493 27.047688 -21.509726 -5.761290 6.810639 10.853596 20.330416 -4.128386 33.137379 -3.002549 -10.767832 2.971642 -4.490881 1.927035 -7.947395 -20.272039 56.042713 -86.685806 2.112125 31.804611 8.524705 12.647240 -83.870499 -4.704987 0.510038 2.448925 8.467470 30.208141 -47.302898 86.467537 -1.677004 31.183554 -8.534408 -12.637552 71.849464 -54.361019 29.569027 -14.614922 94.865929 1.913246 -9.791327 3.444628 -8.281748 -2.843086 -46.735035 -13.504975 -1.668585 106.926414 -3.670659 9.660190 5.174453 -0.032496 2.874736 
-47.747738 86.513458 -15.010814 -32.673855 -27.437948 -4.988093 72.983528 -5.044463 26.757479 -21.666115 -5.728613 6.688920 13.259386 19.366545 -3.687141 29.452927 -1.147518 -9.865723 2.971642 -4.490881 1.927035 -6.754429 -20.962685 57.103832 -86.513977 1.768883 31.344427 8.524705 12.647240 -84.192764 -4.704987 0.510038 2.448925 9.039715 28.756262 -45.406387 86.526497 -1.798856 31.382055 -8.534408 -12.637552 72.474464 -54.854580 29.733835 -14.429987 94.865929 1.913261 -9.791316 3.455438 -8.569641 -2.859655 -46.909264 -13.611970 -1.686443 107.190636 -3.700156 9.625030 5.817675 0.050547 2.823905 
-47.812164 86.482346 -15.025583 -33.106503 -27.661936 -4.308776 73.253960 -4.435820 27.047739 -21.569027 -5.752319 6.611219 12.745988 19.683752 -3.835616 30.296408 -2.131857 -10.325693 2.971642 -4.490881 1.927035 -5.833724 -21.823874 58.038155 -86.383087 1.487301 30.822540 8.524705 12.647240 -84.993546 -4.704987 0.510038 2.448925 8.959914 29.379625 -46.571877 86.552864 -1.858441 31.457027 -8.534408 -12.637552 71.956886 -55.840149 30.475748 -14.622249 94.953400 1.932648 -9.784170 3.713958 -8.864693 -2.804889 -46.882778 -13.134306 -1.902807 107.481857 -3.748549 9.640303 5.798618 0.043798 2.832149 
-47.888535 86.434258 -15.059527 -33.336372 -28.084936 -3.746242 73.503922 -3.812918 27.572481 -21.099529 -5.630403 6.558819 11.427082 19.843231 -4.055119 31.008188 -3.468710 -10.785694 2.971642 -4.490881 1.927035 -5.573399 -23.215519 58.317944 -86.283409 1.299713 30.236837 8.524705 12.647240 -85.491592 -4.704987 0.510038 2.448925 8.047222 30.647387 -48.406353 86.526314 -1.799543 31.391798 -8.534408 -12.637552 72.220566 -57.383125 31.481678 -15.045001 95.069473 1.961853 -9.786757 4.008584 -9.117354 -2.752892 -47.214699 -12.343216 -2.226654 107.774109 -3.796740 9.626955 5.839186 -0.150629 2.840909 
-47.981560 86.388054 -15.094409 -33.427570 -27.773104 -2.972713 73.612106 -3.468155 27.264214 -20.814083 -5.274848 6.413928 11.401431 18.553326 -4.253764 31.018822 -1.043350 -10.295547 2.971642 -4.490881 1.927035 -5.366961 -24.793808 58.608658 -86.199417 1.259503 29.622053 8.524705 12.647240 -84.964249 -4.704987 0.510038 2.448925 7.226998 31.760290 -49.972115 86.496651 -1.738448 31.287655 -8.534408 -12.637552 72.161964 -58.663334 31.599201 -15.087360 95.195992 1.971441 -9.791381 4.261834 -8.999313 -2.711134 -47.945827 -12.596937 -2.319278 108.202888 -3.857549 9.609544 6.273340 -0.227974 2.843613 
-48.052265 86.373291 -15.087496 -33.837193 -26.846060 -2.085450 73.957832 -3.442545 26.367723 -21.008633 -5.131865 6.223286 11.945188 18.474386 -4.168343 29.833385 -0.728727 -10.153325 2.971642 -4.490881 1.927035 -4.632954 -25.951134 59.369007 -86.129257 1.323050 29.166988 8.524705 12.647240 -83.684944 -4.704987 0.510038 2.448925 7.926876 30.908222 -48.754982 86.558578 -1.869172 31.485598 -8.534408 -12.637552 71.859230 -58.788559 31.168982 -14.377012 95.332962 1.975665 -9.782873 4.193166 -8.920675 -2.710898 -48.424606 -13.622193 -1.942773 108.650795 -3.915879 9.610346 6.648350 0.192732 2.778821 
-48.101608 86.388687 -15.080582 -34.507648 -26.137711 -1.301957 74.486519 -3.382098 25.710676 -20.959339 -5.014252 6.069027 9.764688 18.691656 -4.467347 33.510765 -1.232499 -10.382978 2.971642 -4.490881 1.927035 -4.132949 -26.839502 59.974968 -86.067017 1.413728 28.856932 8.524705 12.647240 -82.415421 -4.704987 0.510038 2.448925 7.637133 31.663107 -48.268135 86.509285 -1.768459 31.324968 -8.534408 -12.637552 70.238144 -58.471378 31.121433 -13.531998 95.400566 2.000705 -9.778412 3.982882 -8.984781 -2.751592 -48.631062 -14.120849 -1.489063 108.856041 -3.935365 9.595017 6.982182 0.647937 2.702451 
-48.172321 86.394974 -15.105094 -35.043282 -25.752455 -0.529486 74.841583 -3.130155 25.304930 -20.430206 -4.651901 5.907665 11.688293 16.900517 -4.186903 30.109201 1.520136 -9.287415 2.971642 -4.490881 1.927035 -4.067223 -27.824736 59.735558 -86.007118 1.505617 28.585806 8.524705 12.647240 -82.229874 -4.704987 0.510038 2.448925 7.247662 31.751043 -48.886944 86.514328 -1.778733 31.344101 -8.534408 -12.637552 70.589706 -58.730312 31.403137 -13.074471 95.429176 2.014401 -9.784217 3.970499 -9.012533 -2.782351 -48.862743 -14.256660 -1.353806 109.031326 -3.954735 9.598221 7.241829 0.275495 2.716411 
-48.257488 86.360085 -15.128037 -35.349281 -26.097439 0.399848 75.134666 -2.318284 25.646288 -21.233641 -5.052292 5.831199 11.453176 18.097416 -4.319394 31.610128 -0.023344 -10.080296 2.971642 -4.490881 1.927035 -3.203050 -28.128899 60.563316 -85.947136 1.610024 28.372169 8.524705 12.647240 -81.819717 -4.704987 0.510038 2.448925 7.608326 31.613544 -48.689842 86.541161 -1.829674 31.438858 -8.534408 -12.637552 71.732277 -60.321430 32.099339 -13.712771 95.556030 2.010277 -9.793925 4.431854 -9.071898 -2.680411 -48.862389 -13.875887 -1.905122 109.265160 -4.003594 9.580511 7.148133 -0.305034 2.772579 
-48.341713 86.271782 -15.139350 -35.621067 -27.187881 1.447329 75.380867 -0.956275 26.820187 -21.590063 -5.576416 5.785666 5.418610 19.543818 -5.250545 42.973915 -2.498616 -11.439312 2.971642 -4.490881 1.927035 -2.626234 -28.468164 61.121834 -85.903526 1.682307 28.239517 8.524705 12.647240 -81.477921 -4.704987 0.510038 2.448925 7.829961 30.769066 -48.585228 86.609077 -1.967744 31.626842 -8.534408 -12.637552 74.447121 -63.031635 33.211399 -15.409240 95.711479 2.049179 -9.777856 5.399523 -9.268647 -2.486832 -48.676422 -12.772059 -3.003900 109.509087 -4.032860 9.570081 6.704089 -0.655618 2.839269 
-48.386021 86.251350 -15.187435 -35.430500 -26.196634 2.247896 75.335983 -0.740709 25.881823 -21.420507 -5.102646 5.547029 4.434486 19.592638 -5.479727 43.748600 -3.037344 -11.843987 2.971642 -4.490881 1.927035 -2.663069 -28.928087 61.235847 -85.902206 1.681384 28.229807 8.524705 12.647240 -81.292374 -4.704987 0.510038 2.448925 7.411815 30.524179 -47.951439 86.545639 -1.839365 31.448261 -8.534408 -12.637552 71.253761 -63.651127 32.333519 -14.848343 95.672112 2.048986 -9.786010 5.634757 -8.772573 -2.458348 -49.974754 -13.953418 -2.487868 109.840210 -4.071689 9.574659 6.441617 -0.419337 2.833039 
-48.468044 86.269264 -15.174235 -36.010693 -25.562923 2.746856 75.849274 -0.993271 25.295610 -21.270493 -4.650226 5.460084 14.134817 16.851845 -4.133294 26.695389 1.633797 -9.751898 2.971642 -4.490881 1.927035 -2.625733 -29.191031 60.995762 -85.872223 1.728902 28.138044 8.524705 12.647240 -81.438850 -4.704987 0.510038 2.448925 6.794303 31.631983 -49.207134 86.531738 -1.809716 31.410629 -8.534408 -12.637552 70.902199 -63.426365 32.672588 -14.072404 95.546638 2.004556 -9.789842 5.488636 -9.043475 -2.465456 -50.202419 -13.983966 -1.886810 110.083603 -4.120348 9.564984 7.359951 -0.980795 2.828733 
-48.441963 86.302895 -15.225775 -35.925591 -22.827976 3.644059 76.073471 -1.558760 22.698536 -22.087732 -4.162696 5.075897 12.103510 18.084805 -4.345746 30.179338 -0.379633 -10.359911 2.971642 -4.490881 1.927035 -2.401514 -29.020088 61.535427 -85.859283 1.754020 28.106558 8.524705 12.647240 -81.419327 -4.704987 0.510038 2.448925 6.824135 31.935629 -49.307552 86.541161 -1.829674 31.438858 -8.534408 -12.637552 70.951027 -61.759464 30.114708 -11.657254 95.409981 2.000694 -9.788664 4.488126 -8.341514 -2.655409 -51.850990 -17.127731 -0.209016 110.396255 -4.159552 9.539590 7.554318 0.174494 2.712669 
-48.519588 86.282463 -15.262229 -36.263233 -22.863844 4.353077 76.410835 -1.107007 22.778429 -21.989340 -4.038299 4.984572 11.562967 17.644133 -4.606382 31.046940 0.118608 -10.533874 2.971642 -4.490881 1.927035 -2.528964 -29.091244 61.393021 -85.864258 1.745802 28.117130 8.524705 12.647240 -81.194717 -4.704987 0.510038 2.448925 6.941684 31.489227 -49.125359 86.575539 -1.899396 31.542725 -8.534408 -12.637552 70.443214 -62.771160 30.663393 -11.859825 95.478973 1.981233 -9.792757 4.352342 -8.860334 -2.687575 -51.923233 -16.689384 -0.322156 110.513321 -4.179007 9.531578 6.687973 0.517453 2.737223 
-48.689606 86.175301 -15.226090 -36.880096 -25.003237 4.677162 76.853203 -0.185560 24.892618 -21.864120 -4.314075 5.182508 12.294659 17.166866 -4.489761 29.678083 0.891625 -10.209934 2.971642 -4.490881 1.927035 -2.630167 -29.034830 61.342319 -85.858162 1.753124 28.096848 8.524705 12.647240 -80.804085 -4.704987 0.510038 2.448925 6.985514 31.109320 -50.285316 86.695587 -2.132374 31.843014 -8.534408 -12.637552 73.665878 -66.065186 33.669426 -14.127522 95.711823 2.029784 -9.789001 5.189407 -10.283448 -2.511489 -51.154816 -13.406540 -1.651935 110.688408 -4.198407 9.542190 6.092040 -0.361465 2.843248 
-48.790802 86.068443 -15.291772 -36.881298 -26.453091 5.255659 77.093048 0.881872 26.302820 -22.129612 -4.533596 5.224427 10.599607 17.742868 -4.720930 32.296307 -0.543246 -10.720508 2.971642 -4.490881 1.927035 -2.817030 -28.765348 61.362503 -85.858734 1.753893 28.106571 8.524705 12.647240 -80.628304 -4.704987 0.510038 2.448925 7.489926 29.402622 -48.476391 86.734932 -2.208586 31.926998 -8.534408 -12.637552 72.796738 -69.521347 35.046459 -16.291576 95.789253 2.042784 -9.796956 6.026898 -11.001087 -2.313843 -51.447937 -11.551213 -2.775801 110.776932 -4.208355 9.518996 6.486119 -1.937521 2.957150 
